<svg xmlns="http://www.w3.org/2000/svg" viewBox="0 0 500 500"><g id="freepik--Floor--inject-91"><ellipse id="freepik--floor--inject-91" cx="250" cy="357.87" rx="223" ry="128.32" style="fill:#f5f5f5"></ellipse></g><g id="freepik--Plants--inject-91"><g id="freepik--plants--inject-91"><path d="M159.48,394.28s2.18-14.67-1.95-27.6-12-22.43-20.91-25.57-18.44,3.25-10.26,11.58,23.88,18.78,26.09,42.36Z" style="fill:#FDE4D2"></path><g style="opacity:0.15"><path d="M159.48,394.28s2.18-14.67-1.95-27.6-12-22.43-20.91-25.57-18.44,3.25-10.26,11.58,23.88,18.78,26.09,42.36Z"></path></g><path d="M157.81,389.87h.1a.5.5,0,0,0,.44-.56c-3.29-26.15-18.89-40.87-26.69-45a.5.5,0,0,0-.47.89c7.64,4,22.93,18.5,26.16,44.23A.5.5,0,0,0,157.81,389.87Z" style="fill:#fff"></path><path d="M114.14,373.51c.29,2,1.94,3.4,3.51,4.6s3.28,2.51,3.78,4.42c1,3.87-3.46,7.67-2.3,11.49a6.2,6.2,0,0,0,3.42,3.49c1.25.61,2.59,1,3.9,1.47a19.52,19.52,0,0,0,1.94.38,8.94,8.94,0,0,1,5.35,2.12c2.23,2.22,2.11,5.79,3,8.81a13.05,13.05,0,0,0,7.36,8.07c2.89,1.23,7.57,1.81,8.72.7.87-.84,0-4.38.25-5.55a50.5,50.5,0,0,0,1.34-9.22,17.5,17.5,0,0,1,.56-4.21c.43-1.53.86-3.06,1.28-4.6s1.2-2.86,1.07-4.69a17.67,17.67,0,0,0-1.39-5.08q-.94-2.41-1.93-4.82a24.89,24.89,0,0,0-2.81-5.42,13.05,13.05,0,0,0-9-5.12c-2.91-.31-6.08.5-8.92-.43s-5.29-2.42-8.21-3a10.33,10.33,0,0,0-8.86,1.88A5.51,5.51,0,0,0,114.14,373.51Z" style="fill:#FDE4D2"></path><path d="M152.42,410.94h0a.45.45,0,0,0,.45-.44c.3-28-26.12-39.42-32.68-40.75a.45.45,0,0,0-.52.35.43.43,0,0,0,.35.52c6.41,1.3,32.26,12.46,32,39.87A.45.45,0,0,0,152.42,410.94Z" style="fill:#fff"></path><path d="M125.57,389.23a.4.4,0,0,0,.26-.06,23.71,23.71,0,0,1,20.17-.06.44.44,0,0,0,.58-.23.45.45,0,0,0-.22-.59,24.64,24.64,0,0,0-21,.11.44.44,0,0,0-.16.61A.42.42,0,0,0,125.57,389.23Z" style="fill:#fff"></path></g></g><g id="freepik--Gear--inject-91"><g id="freepik--gear--inject-91"><path d="M288.87,126.26a1.19,1.19,0,0,0-.24-.63l-.14-.14-.16-.1a1.08,1.08,0,0,0-.41-.1,1.48,1.48,0,0,0-.62.11l-12.91,5.15a1.51,1.51,0,0,1-2.06-1.07c-.13-.48-.27-.95-.42-1.42s-.26-.77-.39-1.14c-.19-.55-.41-1.09-.64-1.6-.11-.26-.23-.52-.34-.77l-.36-.74h0c-.12-.25-.25-.48-.38-.72a3.11,3.11,0,0,1-.31-.84,3.36,3.36,0,0,1,.25-2.23l2.64-4.79,6.55-11.85a1.92,1.92,0,0,0-.63-2.51l-9-5.72-11.41-7.28L249,82.17h0a.75.75,0,0,0-.21-.12l-.18-.07-.07,0a1,1,0,0,0-.23,0,1.57,1.57,0,0,0-.43,0h0l-.17,0h0a.08.08,0,0,0-.08,0l-.15,0a.16.16,0,0,0-.09,0l-.12,0h-.06l-.06,0s0,0,0,0a.69.69,0,0,0-.22.14l0,0h0a.83.83,0,0,0-.17.15l-.16.18-8,10.93h0l-9.21-5.88-.17-.12-2.79-1.78-3.78-2.41a.35.35,0,0,0-.12-.07l0,0-.07,0h0s0,0,0,0h0a.69.69,0,0,0-.2,0h-.37a1.84,1.84,0,0,0-.36.15h0L206.68,91s0,0,0,0l-.06,0a.16.16,0,0,0-.08.06l-.06,0-.21.15-.11.08-.07.08s0,0-.06,0l-.15.14a.6.6,0,0,0-.11.12l-.15.18h0l-.15.19a2.59,2.59,0,0,0-.19.31h0a.41.41,0,0,1-.07.15l0,.06s0,0,0,.06a.61.61,0,0,0,0,.12c0,.11-.09.24-.13.37a.49.49,0,0,0,0,.16,1.55,1.55,0,0,0,0,.21l-2.13,15.76c0,.14-.06.28-.09.42a1.87,1.87,0,0,1-.07.22,2.09,2.09,0,0,0-.08.23,5.51,5.51,0,0,1-1.37,2c-.72.61-1.43,1.23-2.13,1.87-.53.47-1.05,1-1.58,1.46L195.87,117c-.52.51-1,1-1.53,1.56s-1,1.06-1.5,1.61a1.21,1.21,0,0,1-.2.19,1.18,1.18,0,0,1-.22.17,1.1,1.1,0,0,1-.26.14.61.61,0,0,1-.23.11.86.86,0,0,1-.21.07l-.1,0-.14,0a1.11,1.11,0,0,1-.25,0s-.06,0-.08,0a.31.31,0,0,1-.16,0,.33.33,0,0,1-.17,0,2.12,2.12,0,0,1-.44,0h0a.86.86,0,0,1-.23-.06l-.11,0-9-3.6a1.43,1.43,0,0,0-.34-.09l-.32,0,0,0a2.21,2.21,0,0,0-2,.95l-11.26,17.64a1.58,1.58,0,0,0-.16.35l0,.06a2.22,2.22,0,0,0-.09.37s0,0,0,.08a.9.9,0,0,0,0,.16c0,.12,0,.24,0,.35a2.21,2.21,0,0,0,.08.37,2.43,2.43,0,0,0,.27.62,0,0,0,0,1,0,0l.13.18a1.36,1.36,0,0,0,.17.17l7,6.64c.07.08.14.15.2.23a.58.58,0,0,1,.11.15c.06.08.11.18.17.28s.07.17.1.26,0,0,0,0a.13.13,0,0,1,0,.06,1.91,1.91,0,0,1,.12.47.22.22,0,0,1,0,.11.66.66,0,0,1,0,.14c0,.05,0,.1,0,.16s0,.16,0,.24,0,.21,0,.31l0,.1a1.7,1.7,0,0,1-.1.32,86.16,86.16,0,0,0-3.78,10.88,4,4,0,0,1-.29.74,1.41,1.41,0,0,1-.13.24l0,.06c0,.09-.1.18-.16.27a.2.2,0,0,1-.06.07.34.34,0,0,1-.07.11,1.34,1.34,0,0,1-.11.14c-.07.1-.16.2-.24.3l-.09.09a1.37,1.37,0,0,1-.16.18,5,5,0,0,1-.58.48L156,170.06a2.17,2.17,0,0,0-.3.23,1.29,1.29,0,0,0-.17.16l-.12.13h0a1.37,1.37,0,0,0-.19.22,2.4,2.4,0,0,0-.21.31l-.15.25-.13.27a1.28,1.28,0,0,0-.11.27.7.7,0,0,0-.06.19c0,.11-.06.22-.09.32a2.6,2.6,0,0,0,0,.37l-.73,16.42a1.17,1.17,0,0,0,0,.27l0,.15a.47.47,0,0,0,.06.2.05.05,0,0,0,0,0,.63.63,0,0,0,.13.23h0a.58.58,0,0,0,.18.17h0l.09.05,15.94,10.19-6.54,11.84a.72.72,0,0,0-.09.2,1.87,1.87,0,0,0-.14.61,1.58,1.58,0,0,0,0,.37h0a2.25,2.25,0,0,0,.09.35h0a2.14,2.14,0,0,0,.21.43,0,0,0,0,0,0,0l.15.2a2.52,2.52,0,0,0,.39.33l21.8,14a1.29,1.29,0,0,0,.33.17l7.15,4.55a1.91,1.91,0,0,0,2.54-.47l8-10.92,16,10.19h0a1,1,0,0,0,.25.13,1.21,1.21,0,0,0,1-.12l14.59-7.58a2.89,2.89,0,0,0,.63-.46,4.22,4.22,0,0,0,.55-.64,3.42,3.42,0,0,0,.62-1.49l2.14-15.76a5.3,5.3,0,0,1,1.61-2.88,84.05,84.05,0,0,0,8.26-8,2.71,2.71,0,0,1,2.83-.66l9,3.59a2.23,2.23,0,0,0,2.6-.85L275.42,180a2.24,2.24,0,0,0-.34-2.72L268,170.64a2.74,2.74,0,0,1-.58-2.85,84.48,84.48,0,0,0,3.78-10.87,5.33,5.33,0,0,1,1.94-2.68l13.4-8.56a3.85,3.85,0,0,0,1.58-2.73l.73-16.43C288.88,126.43,288.87,126.34,288.87,126.26Zm-51,12.39c-.71,16-12.81,35-27,42.36a29.07,29.07,0,0,1-4.9,2c-.11-.8-.18-1.64-.22-2.51q0-.51,0-1.05v-.59c0-.38,0-.75,0-1.13.71-16,12.82-35,27.05-42.37.43-.23.85-.44,1.28-.63.21-.11.43-.2.63-.29l.63-.26a23.87,23.87,0,0,1,2.35-.85A30.23,30.23,0,0,1,237.88,138.65Z" style="fill:#FDE4D2"></path><path d="M288.87,126.26a1.19,1.19,0,0,0-.24-.63l-.14-.14-.16-.1a1.08,1.08,0,0,0-.41-.1,1.48,1.48,0,0,0-.62.11l-12.91,5.15a1.51,1.51,0,0,1-2.06-1.07c-.13-.48-.27-.95-.42-1.42s-.26-.77-.39-1.14c-.19-.55-.41-1.09-.64-1.6-.11-.26-.23-.52-.34-.77l-.36-.74h0c-.12-.25-.25-.48-.38-.72a3.11,3.11,0,0,1-.31-.84,3.36,3.36,0,0,1,.25-2.23l2.64-4.79,6.55-11.85a1.92,1.92,0,0,0-.63-2.51l-9-5.72-11.41-7.28L249,82.17h0a.75.75,0,0,0-.21-.12l-.18-.07-.07,0a1,1,0,0,0-.23,0,1.57,1.57,0,0,0-.43,0h0l-.17,0h0a.08.08,0,0,0-.08,0l-.15,0a.16.16,0,0,0-.09,0l-.12,0h-.06l-.06,0s0,0,0,0a.69.69,0,0,0-.22.14l0,0h0a.83.83,0,0,0-.17.15l-.16.18-8,10.93h0l-9.21-5.88-.17-.12-2.79-1.78-3.78-2.41a.35.35,0,0,0-.12-.07l0,0-.07,0h0s0,0,0,0h0a.69.69,0,0,0-.2,0h-.37a1.84,1.84,0,0,0-.36.15h0L206.68,91s0,0,0,0l-.06,0a.16.16,0,0,0-.08.06l-.06,0-.21.15-.11.08-.07.08s0,0-.06,0l-.15.14a.6.6,0,0,0-.11.12l-.15.18h0l-.15.19a2.59,2.59,0,0,0-.19.31h0a.41.41,0,0,1-.07.15l0,.06s0,0,0,.06a.61.61,0,0,0,0,.12c0,.11-.09.24-.13.37a.49.49,0,0,0,0,.16,1.55,1.55,0,0,0,0,.21l-2.13,15.76c0,.14-.06.28-.09.42a1.87,1.87,0,0,1-.07.22,2.09,2.09,0,0,0-.08.23,5.51,5.51,0,0,1-1.37,2c-.72.61-1.43,1.23-2.13,1.87-.53.47-1.05,1-1.58,1.46L195.87,117c-.52.51-1,1-1.53,1.56s-1,1.06-1.5,1.61a1.21,1.21,0,0,1-.2.19,1.18,1.18,0,0,1-.22.17,1.1,1.1,0,0,1-.26.14.61.61,0,0,1-.23.11.86.86,0,0,1-.21.07l-.1,0-.14,0a1.11,1.11,0,0,1-.25,0s-.06,0-.08,0a.31.31,0,0,1-.16,0,.33.33,0,0,1-.17,0,2.12,2.12,0,0,1-.44,0h0a.86.86,0,0,1-.23-.06l-.11,0-9-3.6a1.43,1.43,0,0,0-.34-.09l-.32,0,0,0a2.21,2.21,0,0,0-2,.95l-11.26,17.64a1.58,1.58,0,0,0-.16.35l0,.06a2.22,2.22,0,0,0-.09.37s0,0,0,.08a.9.9,0,0,0,0,.16c0,.12,0,.24,0,.35a2.21,2.21,0,0,0,.08.37,2.43,2.43,0,0,0,.27.62,0,0,0,0,1,0,0l.13.18a1.36,1.36,0,0,0,.17.17l7,6.64c.07.08.14.15.2.23a.58.58,0,0,1,.11.15c.06.08.11.18.17.28s.07.17.1.26,0,0,0,0a.13.13,0,0,1,0,.06,1.91,1.91,0,0,1,.12.47.22.22,0,0,1,0,.11.66.66,0,0,1,0,.14c0,.05,0,.1,0,.16s0,.16,0,.24,0,.21,0,.31l0,.1a1.7,1.7,0,0,1-.1.32,86.16,86.16,0,0,0-3.78,10.88,4,4,0,0,1-.29.74,1.41,1.41,0,0,1-.13.24l0,.06c0,.09-.1.18-.16.27a.2.2,0,0,1-.06.07.34.34,0,0,1-.07.11,1.34,1.34,0,0,1-.11.14c-.07.1-.16.2-.24.3l-.09.09a1.37,1.37,0,0,1-.16.18,5,5,0,0,1-.58.48L156,170.06a2.17,2.17,0,0,0-.3.23,1.29,1.29,0,0,0-.17.16l-.12.13h0a1.37,1.37,0,0,0-.19.22,2.4,2.4,0,0,0-.21.31l-.15.25-.13.27a1.28,1.28,0,0,0-.11.27.7.7,0,0,0-.06.19c0,.11-.06.22-.09.32a2.6,2.6,0,0,0,0,.37l-.73,16.42a1.17,1.17,0,0,0,0,.27l0,.15a.47.47,0,0,0,.06.2.05.05,0,0,0,0,0,.63.63,0,0,0,.13.23h0a.58.58,0,0,0,.18.17h0l.09.05,15.94,10.19-6.54,11.84a.72.72,0,0,0-.09.2,1.87,1.87,0,0,0-.14.61,1.58,1.58,0,0,0,0,.37h0a2.25,2.25,0,0,0,.09.35h0a2.14,2.14,0,0,0,.21.43,0,0,0,0,0,0,0l.15.2a2.52,2.52,0,0,0,.39.33l21.8,14a1.29,1.29,0,0,0,.33.17l7.15,4.55a1.91,1.91,0,0,0,2.54-.47l8-10.92,16,10.19h0a1,1,0,0,0,.25.13,1.21,1.21,0,0,0,1-.12l14.59-7.58a2.89,2.89,0,0,0,.63-.46,4.22,4.22,0,0,0,.55-.64,3.42,3.42,0,0,0,.62-1.49l2.14-15.76a5.3,5.3,0,0,1,1.61-2.88,84.05,84.05,0,0,0,8.26-8,2.71,2.71,0,0,1,2.83-.66l9,3.59a2.23,2.23,0,0,0,2.6-.85L275.42,180a2.24,2.24,0,0,0-.34-2.72L268,170.64a2.74,2.74,0,0,1-.58-2.85,84.48,84.48,0,0,0,3.78-10.87,5.33,5.33,0,0,1,1.94-2.68l13.4-8.56a3.85,3.85,0,0,0,1.58-2.73l.73-16.43C288.88,126.43,288.87,126.34,288.87,126.26Zm-51,12.39c-.71,16-12.81,35-27,42.36a29.07,29.07,0,0,1-4.9,2c-.11-.8-.18-1.64-.22-2.51q0-.51,0-1.05v-.59c0-.38,0-.75,0-1.13.71-16,12.82-35,27.05-42.37.43-.23.85-.44,1.28-.63.21-.11.43-.2.63-.29l.63-.26a23.87,23.87,0,0,1,2.35-.85A30.23,30.23,0,0,1,237.88,138.65Z" style="opacity:0.30000000000000004"></path><path d="M182,200.8l-6.35,2.53a1.2,1.2,0,0,1-1.13-.05l-4.32-2.75-6.54,11.84a1.92,1.92,0,0,0,.64,2.51l21.8,14a1.91,1.91,0,0,0,1.37.26l6-21Z" style="opacity:0.05"></path><path d="M195.68,160.09l-20.38-13a2.67,2.67,0,0,0-.75-2l-7-6.63a2.15,2.15,0,0,1-.64-1.34l20.37,13a2.14,2.14,0,0,0,.63,1.3l7,6.64A2.67,2.67,0,0,1,195.68,160.09Z" style="fill:#FDE4D2"></path><path d="M195.68,160.09l-20.38-13a2.67,2.67,0,0,0-.75-2l-7-6.63a2.15,2.15,0,0,1-.64-1.34l20.37,13a2.14,2.14,0,0,0,.63,1.3l7,6.64A2.67,2.67,0,0,1,195.68,160.09Z" style="opacity:0.4"></path><path d="M212.1,133.87a2.66,2.66,0,0,1-1.72,0l-9-3.59a1.86,1.86,0,0,0-.66-.14h0l-20.35-13a2,2,0,0,1,.65.13l9,3.59a2.6,2.6,0,0,0,1.7,0Z" style="fill:#FDE4D2"></path><path d="M212.1,133.87a2.66,2.66,0,0,1-1.72,0l-9-3.59a1.86,1.86,0,0,0-.66-.14h0l-20.35-13a2,2,0,0,1,.65.13l9,3.59a2.6,2.6,0,0,0,1.7,0Z" style="opacity:0.2"></path><path d="M225.49,105.67a3.63,3.63,0,0,0-.27.85l-2.12,15.77a3.62,3.62,0,0,1-.25.87l-20.36-13a3.93,3.93,0,0,0,.24-.87l2.13-15.76a2.94,2.94,0,0,1,.27-.86Z" style="fill:#FDE4D2"></path><path d="M225.49,105.67a3.63,3.63,0,0,0-.27.85l-2.12,15.77a3.62,3.62,0,0,1-.25.87l-20.36-13a3.93,3.93,0,0,0,.24-.87l2.13-15.76a2.94,2.94,0,0,1,.27-.86Z" style="opacity:0.2"></path><path d="M272.37,115.22l16,10.17a1.21,1.21,0,0,0-1,0l-12.92,5.14a1.51,1.51,0,0,1-2.06-1.07,28.31,28.31,0,0,0-2.55-6.4,3.52,3.52,0,0,1,0-3.07Z" style="fill:#FDE4D2"></path><path d="M288.41,125.43h0Z" style="fill:#FDE4D2"></path><path d="M269.33,95.14a1.93,1.93,0,0,0-2.51.5L255.6,111a2.73,2.73,0,0,1-.8.7L249.06,108l-5.35-3.43-.41-7.28a1.18,1.18,0,0,0-.53-1l-.06,0-4.25-2.7,8-10.93a1.91,1.91,0,0,1,2.51-.48l8.94,5.71Z" style="fill:#FDE4D2"></path><path d="M190.78,173.54a4.42,4.42,0,0,1-1,1l-13.4,8.57a3.11,3.11,0,0,0-1,1l-20.34-13a3.33,3.33,0,0,1,.93-1l13.41-8.56a4.84,4.84,0,0,0,1-1Z" style="fill:#FDE4D2"></path><path d="M200.4,130.13a2.24,2.24,0,0,0-1.6,1l-11.27,17.65a2.07,2.07,0,0,0-.29,1.41l-20.36-13a2.08,2.08,0,0,1,.29-1.38l11.25-17.64a2.22,2.22,0,0,1,1.76-1Z" style="fill:#FDE4D2"></path><path d="M242.71,96.27a1.26,1.26,0,0,0-1.09.09l-6,3.1L227,103.94a3.81,3.81,0,0,0-1.55,1.73l-20.37-13A3.79,3.79,0,0,1,206.67,91l14.59-7.57a1.42,1.42,0,0,1,.72-.18.7.7,0,0,1,.42.13l6.68,4.24.17.11,9.21,5.89Z" style="fill:#FDE4D2"></path><path d="M272.37,115.22l16,10.17a1.21,1.21,0,0,0-1,0l-12.92,5.14a1.51,1.51,0,0,1-2.06-1.07,28.31,28.31,0,0,0-2.55-6.4,3.52,3.52,0,0,1,0-3.07Z" style="opacity:0.1"></path><path d="M269.33,95.14a1.93,1.93,0,0,0-2.51.5L255.6,111a2.73,2.73,0,0,1-.8.7L249.06,108l-5.35-3.43-.41-7.28a1.18,1.18,0,0,0-.53-1l-.06,0-4.25-2.7,8-10.93a1.91,1.91,0,0,1,2.51-.48l8.94,5.71Z" style="opacity:0.2"></path><path d="M190.78,173.54a4.42,4.42,0,0,1-1,1l-13.4,8.57a3.11,3.11,0,0,0-1,1l-20.34-13a3.33,3.33,0,0,1,.93-1l13.41-8.56a4.84,4.84,0,0,0,1-1Z" style="opacity:0.2"></path><path d="M200.4,130.13a2.24,2.24,0,0,0-1.6,1l-11.27,17.65a2.07,2.07,0,0,0-.29,1.41l-20.36-13a2.08,2.08,0,0,1,.29-1.38l11.25-17.64a2.22,2.22,0,0,1,1.76-1Z" style="opacity:0.1"></path><path d="M242.71,96.27a1.26,1.26,0,0,0-1.09.09l-6,3.1L227,103.94a3.81,3.81,0,0,0-1.55,1.73l-20.37-13A3.79,3.79,0,0,1,206.67,91l14.59-7.57a1.42,1.42,0,0,1,.72-.18.7.7,0,0,1,.42.13l6.68,4.24.17.11,9.21,5.89Z" style="opacity:0.1"></path><path d="M193.45,208.1,182,200.8l6.55-2.61a1.5,1.5,0,0,1,2.07,1.06,28.12,28.12,0,0,0,2.55,6.41A3.56,3.56,0,0,1,193.45,208.1Z" style="opacity:0.15"></path><path d="M220.09,232.36l-16-10.19,3.24-4.42a3.51,3.51,0,0,1,2.82-1.25,28.55,28.55,0,0,0,6.88-.39,1.5,1.5,0,0,1,1.83,1.42l.78,13.88A1.2,1.2,0,0,0,220.09,232.36Z" style="opacity:0.15"></path><path d="M288.87,126.26a1.19,1.19,0,0,0-.24-.63l-.14-.14-.16-.1a1.08,1.08,0,0,0-.41-.1,1.48,1.48,0,0,0-.62.11l-12.91,5.15a1.51,1.51,0,0,1-2.06-1.07c-.13-.48-.27-.95-.42-1.42s-.26-.77-.39-1.14c-.19-.55-.41-1.09-.64-1.6-.11-.26-.23-.52-.34-.77l-.36-.74h0c-.12-.25-.25-.48-.38-.72a3.11,3.11,0,0,1-.31-.84,3.36,3.36,0,0,1,.25-2.23l2.64-4.79,6.55-11.85a1.92,1.92,0,0,0-.63-2.51l-8.93-5.7,0,0-.11,0-.08,0,0,0-.2-.08h0l-.1,0-.11,0-.23,0a2,2,0,0,0-1.49.59.84.84,0,0,0-.15.18l-4.12,5.63L255.6,111a1,1,0,0,1-.17.19.67.67,0,0,1-.14.15,2.47,2.47,0,0,1-.49.36,3.71,3.71,0,0,1-2,.55c-.76-.06-1.54-.08-2.33-.07a30.46,30.46,0,0,0-4.55.45,1.5,1.5,0,0,1-1.84-1.42l-.37-6.6-.4-7.28a1.61,1.61,0,0,0-.06-.33,1,1,0,0,0-.1-.29.94.94,0,0,0-.14-.19.06.06,0,0,0,0-.05l-.2-.15-.07,0h0l-.15-.05a1.34,1.34,0,0,0-.91.15L227,103.94a2.31,2.31,0,0,0-.53.37l-.14.13a4.15,4.15,0,0,0-.51.6c-.09.12-.16.23-.24.36l-.13.27a3.2,3.2,0,0,0-.17.43,2.53,2.53,0,0,0-.1.42l-1.51,11.23-.61,4.54c0,.16-.07.34-.12.52a1.66,1.66,0,0,1-.13.35,5.34,5.34,0,0,1-1.36,2,85.36,85.36,0,0,0-8.28,8,2.46,2.46,0,0,1-1.12.68,2.68,2.68,0,0,1-.49.11l-.24,0a2.29,2.29,0,0,1-1-.15l-9-3.59a1.49,1.49,0,0,0-.3-.09.84.84,0,0,0-.27,0h-.1a1.42,1.42,0,0,0-.29,0,2.21,2.21,0,0,0-1.65,1l-2.28,3.58-6.68,10.49-2.29,3.58a2.22,2.22,0,0,0-.19,1.91,2,2,0,0,0,.52.8l7,6.64a2.74,2.74,0,0,1,.58,2.85,86,86,0,0,0-3.78,10.87,5.29,5.29,0,0,1-1.94,2.68L185.93,177l-9.55,6.11a3.8,3.8,0,0,0-1.57,2.72l-.73,16.43a1.06,1.06,0,0,0,1.57,1.12l12.91-5.14a1.51,1.51,0,0,1,2.07,1.06,29.26,29.26,0,0,0,1.5,4.32c.32.73.66,1.42,1,2.09a3.45,3.45,0,0,1,.06,3.07L184,225.36a1.91,1.91,0,0,0,.64,2.51l8.92,5.69a1.91,1.91,0,0,0,2.54-.47l8-10.92,3.24-4.42a3.5,3.5,0,0,1,2.81-1.25,28.55,28.55,0,0,0,6.88-.39,1.51,1.51,0,0,1,1.84,1.42l.78,13.88a1.23,1.23,0,0,0,.4.93v0h0a.72.72,0,0,0,.25.12,1.21,1.21,0,0,0,1-.12l14.59-7.58a2.89,2.89,0,0,0,.63-.46,4.22,4.22,0,0,0,.55-.64,3.42,3.42,0,0,0,.62-1.49l2.14-15.76a5.3,5.3,0,0,1,1.61-2.88,84.05,84.05,0,0,0,8.26-8,2.71,2.71,0,0,1,2.83-.66l9,3.59a2.23,2.23,0,0,0,2.6-.85L275.42,180a2.24,2.24,0,0,0-.34-2.72L268,170.64a2.74,2.74,0,0,1-.58-2.85,84.48,84.48,0,0,0,3.78-10.87,5.33,5.33,0,0,1,1.94-2.68l13.4-8.56a3.85,3.85,0,0,0,1.58-2.73l.73-16.43C288.88,126.43,288.87,126.34,288.87,126.26Zm-34.82,38.79a55.15,55.15,0,0,1-2.38,5.28,60.5,60.5,0,0,1-6.31,9.89,53.65,53.65,0,0,1-3.74,4.32,44.11,44.11,0,0,1-11.43,8.81,23.53,23.53,0,0,1-10.68,3c-7.23,0-12.39-4.85-13.57-13.28-.11-.8-.18-1.64-.22-2.51q0-.51,0-1.05v-.59c0-.38,0-.75,0-1.13.71-16,12.82-35,27.05-42.37.43-.23.85-.44,1.28-.63.21-.11.43-.2.63-.29l.63-.26a23.87,23.87,0,0,1,2.35-.85c8.14-2.48,14.69.16,17.74,6.71A23.38,23.38,0,0,1,257.22,151,44.24,44.24,0,0,1,254.05,165.05Z" style="fill:#FDE4D2"></path></g></g><g id="freepik--check-mark--inject-91"><g id="freepik--check-mark--inject-91"><path d="M123.3,150.64l-.8,17.94c11.08-6.17,21.53-15.48,30.42-26.5l-8.71-9.64A77.32,77.32,0,0,1,123.3,150.64Z" style="fill:#FDE4D2"></path><path d="M123.3,150.64l-.8,17.94c11.08-6.17,21.53-15.48,30.42-26.5l-8.71-9.64A77.32,77.32,0,0,1,123.3,150.64Z" style="fill:#fff;opacity:0.8"></path><polygon points="112.18 143.51 111.38 161.45 122.5 168.58 123.3 150.64 112.18 143.51" style="fill:#FDE4D2"></polygon><polygon points="112.18 143.51 111.38 161.45 122.5 168.58 123.3 150.64 112.18 143.51" style="fill:#fff;opacity:0.65"></polygon><polygon points="112.18 143.51 111.38 161.45 122.5 168.58 123.3 150.64 112.18 143.51" style="fill:#FDE4D2"></polygon><polygon points="112.18 143.51 111.38 161.45 122.5 168.58 123.3 150.64 112.18 143.51" style="opacity:0.05"></polygon><path d="M123.3,150.64a77.32,77.32,0,0,0,20.91-18.2l-11.13-7.13a77.43,77.43,0,0,1-20.9,18.2Z" style="fill:#FDE4D2"></path><path d="M123.3,150.64a77.32,77.32,0,0,0,20.91-18.2l-11.13-7.13a77.43,77.43,0,0,1-20.9,18.2Z" style="fill:#fff;opacity:0.6000000000000001"></path><path d="M99.09,155.88l-10,19.36c8.31,2.09,18.4.72,29.44-4.59l.8-18C111.78,156.22,104.86,157.2,99.09,155.88Z" style="fill:#FDE4D2"></path><path d="M99.09,155.88l-10,19.36c8.31,2.09,18.4.72,29.44-4.59l.8-18C111.78,156.22,104.86,157.2,99.09,155.88Z" style="fill:#fff;opacity:0.65"></path><polygon points="87.96 148.75 77.96 168.11 89.09 175.24 99.09 155.88 87.96 148.75" style="fill:#FDE4D2"></polygon><polygon points="87.96 148.75 77.96 168.11 89.09 175.24 99.09 155.88 87.96 148.75" style="fill:#fff;opacity:0.55"></polygon><polygon points="87.96 148.75 77.96 168.11 89.09 175.24 99.09 155.88 87.96 148.75" style="fill:#FDE4D2"></polygon><polygon points="87.96 148.75 77.96 168.11 89.09 175.24 99.09 155.88 87.96 148.75" style="opacity:0.1"></polygon><path d="M108.2,145.57c-7.55,3.52-14.47,4.5-20.24,3.18l11.13,7.13c5.77,1.32,12.69.34,20.24-3.18Z" style="fill:#FDE4D2"></path><path d="M108.2,145.57c-7.55,3.52-14.47,4.5-20.24,3.18l11.13,7.13c5.77,1.32,12.69.34,20.24-3.18Z" style="fill:#fff;opacity:0.55"></path><path d="M84.17,141.82,68.75,155.25c3.19,9.48,9.24,16,17.25,19l10-19.34C90.56,152.73,86.45,148.23,84.17,141.82Z" style="fill:#FDE4D2"></path><path d="M84.17,141.82,68.75,155.25c3.19,9.48,9.24,16,17.25,19l10-19.34C90.56,152.73,86.45,148.23,84.17,141.82Z" style="fill:#fff;opacity:0.55"></path><path d="M68.75,155.25l-11.13-7.13C60.1,155.47,64.3,161,69.8,164.58l11.12,7.13C75.42,168.17,71.22,162.6,68.75,155.25Z" style="fill:#FDE4D2"></path><path d="M68.75,155.25l-11.13-7.13C60.1,155.47,64.3,161,69.8,164.58l11.12,7.13C75.42,168.17,71.22,162.6,68.75,155.25Z" style="fill:#fff;opacity:0.45"></path><polygon points="73.04 134.69 57.62 148.12 68.75 155.25 84.17 141.82 73.04 134.69" style="fill:#FDE4D2"></polygon><polygon points="73.04 134.69 57.62 148.12 68.75 155.25 84.17 141.82 73.04 134.69" style="fill:#fff;opacity:0.55"></polygon><polygon points="73.04 134.69 57.62 148.12 68.75 155.25 84.17 141.82 73.04 134.69" style="fill:#FDE4D2"></polygon><polygon points="73.04 134.69 57.62 148.12 68.75 155.25 84.17 141.82 73.04 134.69" style="opacity:0.1"></polygon><path d="M147.54,128.14l8.7,9.63A131.83,131.83,0,0,0,176,99.51l-14.92,2.33A95.35,95.35,0,0,1,147.54,128.14Z" style="fill:#FDE4D2"></path><path d="M147.54,128.14l8.7,9.63A131.83,131.83,0,0,0,176,99.51l-14.92,2.33A95.35,95.35,0,0,1,147.54,128.14Z" style="fill:#fff;opacity:0.85"></path><polygon points="164.92 92.38 150 94.71 161.12 101.84 176.04 99.51 164.92 92.38" style="fill:#FDE4D2"></polygon><polygon points="164.92 92.38 150 94.71 161.12 101.84 176.04 99.51 164.92 92.38" style="fill:#fff;opacity:0.75"></polygon><polygon points="164.92 92.38 150 94.71 161.12 101.84 176.04 99.51 164.92 92.38" style="fill:#FDE4D2"></polygon><path d="M150,94.71A94.81,94.81,0,0,1,136.41,121l11.13,7.13a95.35,95.35,0,0,0,13.58-26.3Z" style="fill:#FDE4D2"></path><path d="M150,94.71A94.81,94.81,0,0,1,136.41,121l11.13,7.13a95.35,95.35,0,0,0,13.58-26.3Z" style="fill:#fff;opacity:0.65"></path><polygon points="147.54 128.14 136.41 121.01 145.11 130.64 156.24 137.77 147.54 128.14" style="fill:#FDE4D2"></polygon><polygon points="147.54 128.14 136.41 121.01 145.11 130.64 156.24 137.77 147.54 128.14" style="fill:#fff;opacity:0.75"></polygon><polygon points="147.54 128.14 136.41 121.01 145.11 130.64 156.24 137.77 147.54 128.14" style="fill:#FDE4D2"></polygon><path d="M180.46,75.75a89.46,89.46,0,0,1-3,18.87L162.54,97a64.21,64.21,0,0,0,2-13,45.23,45.23,0,0,0-.3-7.75l12.85-23c.32.75.6,1.55.88,2.35,0,0,.63,1.93,1,3.63A58.64,58.64,0,0,1,180.46,75.75Z" style="fill:#FDE4D2"></path><path d="M180.46,75.75a89.46,89.46,0,0,1-3,18.87L162.54,97a64.21,64.21,0,0,0,2-13,45.23,45.23,0,0,0-.3-7.75l12.85-23c.32.75.6,1.55.88,2.35,0,0,.63,1.93,1,3.63A58.64,58.64,0,0,1,180.46,75.75Z" style="fill:#fff;opacity:0.9"></path><polygon points="165.99 46.08 153.14 69.12 164.27 76.25 177.12 53.21 165.99 46.08" style="fill:#FDE4D2"></polygon><polygon points="165.99 46.08 153.14 69.12 164.27 76.25 177.12 53.21 165.99 46.08" style="fill:#fff;opacity:0.85"></polygon><polygon points="165.99 46.08 153.14 69.12 164.27 76.25 177.12 53.21 165.99 46.08" style="fill:#FDE4D2"></polygon><path d="M164.27,76.25l-11.13-7.13a45.19,45.19,0,0,1,.31,7.75,64.25,64.25,0,0,1-2,12.95L162.54,97a64.21,64.21,0,0,0,2-13A45.23,45.23,0,0,0,164.27,76.25Z" style="fill:#FDE4D2"></path><path d="M164.64,76.49l-11.12-7.13a44.24,44.24,0,0,1,.3,7.75,63.52,63.52,0,0,1-2,13l11.12,7.13a64.25,64.25,0,0,0,2-13A44.2,44.2,0,0,0,164.64,76.49Z" style="fill:#fff;opacity:0.7000000000000001"></path><path d="M175.59,42.38c-.1-.06-5.31-3.73-5.31-3.73a1.54,1.54,0,0,0-.31-.17l-10.38-4.29a2.31,2.31,0,0,0-2.83,1l-41.92,75.16-16.67-9.16a2.11,2.11,0,0,0-2.79.75L87.2,114.88a1.9,1.9,0,0,0,.6,2.61s4.48,3.21,5.31,3.73a.41.41,0,0,0,.11.07l29,16a2,2,0,0,0,2.72-.78l51.19-91.77A1.73,1.73,0,0,0,175.59,42.38Z" style="fill:#263238"></path><path d="M175.59,42.38c-.1-.06-5.31-3.73-5.31-3.73a1.54,1.54,0,0,0-.31-.17l-10.38-4.29a2.28,2.28,0,0,0-1.94.13l18.11,11.12.39-.71A1.73,1.73,0,0,0,175.59,42.38Z" style="fill:#455a64"></path><path d="M175.28,42.22l-10.39-4.29a2.31,2.31,0,0,0-2.82,1l-41.93,75.17-16.66-9.16a2.1,2.1,0,0,0-2.79.74l-8.18,13a1.9,1.9,0,0,0,.71,2.68l29,16a2,2,0,0,0,2.72-.78l51.19-91.77A1.73,1.73,0,0,0,175.28,42.22Z" style="fill:#37474f"></path><path d="M114.84,110.34l5.29,3.75-16.65-9.17a2.06,2.06,0,0,0-1.55-.18L96.63,101a2,2,0,0,1,1.54.18Z" style="fill:#455a64"></path><path d="M82.18,126.81a64.21,64.21,0,0,1,2-13L69.3,116.19a89.43,89.43,0,0,0-3,18.87,59,59,0,0,0,1.43,16.56l15.4-13.41A43.13,43.13,0,0,1,82.18,126.81Z" style="fill:#FDE4D2"></path><path d="M82.18,126.81a64.21,64.21,0,0,1,2-13L69.3,116.19a89.43,89.43,0,0,0-3,18.87,59,59,0,0,0,1.43,16.56l15.4-13.41A43.13,43.13,0,0,1,82.18,126.81Z" style="fill:#FDE4D2"></path><polygon points="73.08 106.73 58.17 109.06 69.3 116.19 84.21 113.86 73.08 106.73" style="fill:#FDE4D2"></polygon><polygon points="73.08 106.73 58.17 109.06 69.3 116.19 84.21 113.86 73.08 106.73" style="opacity:0.15"></polygon><path d="M69.3,116.19l-11.13-7.13a90.73,90.73,0,0,0-3,18.87,59,59,0,0,0,1.44,16.56l11.12,7.13a59,59,0,0,1-1.43-16.56A89.43,89.43,0,0,1,69.3,116.19Z" style="fill:#FDE4D2"></path><path d="M69.3,116.19l-11.13-7.13a90.73,90.73,0,0,0-3,18.87,59,59,0,0,0,1.44,16.56l11.12,7.13a59,59,0,0,1-1.43-16.56A89.43,89.43,0,0,1,69.3,116.19Z" style="fill:#fff;opacity:0.30000000000000004"></path><path d="M147.65,54.94l10-19.4c-8.64-2.13-18.89-.42-29.46,4.65l-.79,17.9C134.66,54.72,141.66,53.6,147.65,54.94Z" style="fill:#FDE4D2"></path><path d="M147.65,54.94l10-19.4c-8.64-2.13-18.89-.42-29.46,4.65l-.79,17.9C134.66,54.72,141.66,53.6,147.65,54.94Z" style="opacity:0.30000000000000004"></path><polygon points="117.09 33.06 116.29 50.96 127.42 58.09 128.22 40.19 117.09 33.06" style="fill:#FDE4D2"></polygon><polygon points="117.09 33.06 116.29 50.96 127.42 58.09 128.22 40.19 117.09 33.06" style="opacity:0.42"></polygon><path d="M128.21,40.19c10.57-5.07,20.82-6.78,29.46-4.65l-11.12-7.13c-8.64-2.13-18.9-.42-29.46,4.65Z" style="fill:#FDE4D2"></path><path d="M128.21,40.19c10.57-5.07,20.82-6.78,29.46-4.65l-11.12-7.13c-8.64-2.13-18.9-.42-29.46,4.65Z" style="opacity:0.2"></path><path d="M123.45,60.17l.79-17.94c-11.07,6.17-21.52,15.47-30.41,26.5l8.71,9.63A77.45,77.45,0,0,1,123.45,60.17Z" style="fill:#FDE4D2"></path><path d="M123.45,60.17l.79-17.94c-11.07,6.17-21.52,15.47-30.41,26.5l8.71,9.63A77.45,77.45,0,0,1,123.45,60.17Z" style="opacity:0.2"></path><path d="M113.12,35.1C102,41.27,91.59,50.57,82.7,61.6l11.13,7.13c8.89-11,19.34-20.33,30.41-26.5Z" style="fill:#FDE4D2"></path><path d="M113.12,35.1C102,41.27,91.59,50.57,82.7,61.6l11.13,7.13c8.89-11,19.34-20.33,30.41-26.5Z" style="opacity:0.1"></path><polygon points="93.83 68.73 82.7 61.6 91.41 71.23 102.54 78.36 93.83 68.73" style="fill:#FDE4D2"></polygon><polygon points="93.83 68.73 82.7 61.6 91.41 71.23 102.54 78.36 93.83 68.73" style="opacity:0.35000000000000003"></polygon><path d="M99.21,82.66,90.51,73A132.11,132.11,0,0,0,70.7,111.3L85.63,109A95.27,95.27,0,0,1,99.21,82.66Z" style="fill:#FDE4D2"></path><path d="M99.21,82.66,90.51,73A132.11,132.11,0,0,0,70.7,111.3L85.63,109A95.27,95.27,0,0,1,99.21,82.66Z" style="opacity:0.1"></path><path d="M70.7,111.3A132.11,132.11,0,0,1,90.51,73L79.38,65.91a131.83,131.83,0,0,0-19.8,38.26Z" style="fill:#FDE4D2"></path></g></g><g id="freepik--Clock--inject-91"><g id="freepik--clock--inject-91"><path d="M141.3,200.94h0l-.08-.05h0L122,188.28h0l-.12-.06h0c-9-5.23-21.52-4.53-35.37,3.34-27.81,15.8-50.54,54.55-50.76,86.54-.11,16,5.4,27.2,14.39,32.53h0l.08.05h0l19.26,12.61h0l.09.06h0c9,5.24,21.54,4.54,35.4-3.33,27.81-15.81,50.54-54.55,50.76-86.54C155.8,217.52,150.29,206.27,141.3,200.94Z" style="fill:#37474f"></path><path d="M68.77,322.88l-18.6-12.21h0l-.09-.06c-9-5.33-14.49-16.59-14.38-32.51.1-14.27,4.68-29.87,12.18-44.18l19.26,12.61c-7.51,14.3-12.08,29.9-12.17,44.17C54.85,306.31,60.12,317.41,68.77,322.88Z" style="fill:#263238"></path><ellipse cx="105.32" cy="262.09" rx="70.94" ry="40.96" transform="translate(-174.03 220.35) rotate(-59.61)" style="fill:#455a64"></ellipse><path d="M82.55,316.54c-15.88-.11-17.47-18.06-17.42-25.77.19-28.21,21.08-63.83,45.62-77.77,6.24-3.54,12.24-5.4,17.35-5.37,15.88.11,17.47,18.06,17.42,25.77-.2,28.21-21.09,63.83-45.62,77.77-6.24,3.55-12.24,5.4-17.35,5.37Z" style="fill:#fafafa"></path><path d="M108.14,267.53a1.81,1.81,0,0,1-.56-.12,1.73,1.73,0,0,1-1.07-1.7L108.77,225a1.73,1.73,0,0,1,3.45.19l-2,35.69,20.34-23.33a1.73,1.73,0,1,1,2.6,2.27L109.54,267A1.76,1.76,0,0,1,108.14,267.53Z" style="fill:#37474f"></path><path d="M96.75,297.06a.67.67,0,0,1-.24,0,.72.72,0,0,1-.44-.93l11.34-31.67a.72.72,0,1,1,1.36.49L97.44,296.58A.73.73,0,0,1,96.75,297.06Z" style="fill:#FDE4D2"></path><path d="M108.14,257.64c3.27-1.86,5.9-.32,5.88,3.44a13.07,13.07,0,0,1-6,10.19c-3.28,1.86-5.91.31-5.88-3.45A13,13,0,0,1,108.14,257.64Z" style="fill:#FDE4D2"></path><path d="M108.14,257.64c3.27-1.86,5.9-.32,5.88,3.44a13.07,13.07,0,0,1-6,10.19c-3.28,1.86-5.91.31-5.88-3.45A13,13,0,0,1,108.14,257.64Z" style="opacity:0.2"></path></g></g><g id="freepik--Character--inject-91"><g id="freepik--character--inject-91"><path d="M454.44,249.41a5.07,5.07,0,0,1,1.39-.76,12.5,12.5,0,0,1,2.71-.9,4.17,4.17,0,0,1,2.78.4c1.25.74,1.81,2.23,2.24,3.62.64,2.07,1.2,4.16,2,6.17a32,32,0,0,0,5,7.85,13.89,13.89,0,0,1,1.65,11.69,5.93,5.93,0,0,1-4.56,4.35l-3.13-7q-3.24-7.24-6.47-14.5-1.24-2.81-2.5-5.61c-.36-.81-.72-1.63-1.09-2.44-.45-1-1.19-1.79-.15-2.75Z" style="fill:#37474f"></path><path d="M453.8,248.22l.21-.05c1.78-.48,3.63-1.26,5.35-.19a6,6,0,0,1,2.31,3,21.79,21.79,0,0,1,.94,3.74,22.57,22.57,0,0,0,1,3.41,13.88,13.88,0,0,0,1.71,2.86c.94,1.43,3.48,4.34,4.3,5.85a13.86,13.86,0,0,1,1.35,3.88,13.1,13.1,0,0,1,.23,4.5c-.35,2.32-1.69,5.56-3.74,6.73a4.26,4.26,0,0,1-6.32-2.14c-.37-.89-.74-1.78-1.06-2.7a24.55,24.55,0,0,0-2.44-5,29.86,29.86,0,0,0-4.57-5.41c-.19-.17-.38-.37-.57-.52-2.19-1.7-4.47-3.23-4.62-4.18-.12-.79.93-8.76-.65-10.82a1.23,1.23,0,0,1-.17-.86c.08-.43.09-.37.58-.51l2.16-.58Z" style="fill:#455a64"></path><path d="M364.33,180.65c-2.35,13.39-3.13,17.08-5.12,25a371,371,0,0,0-6.47,41.37c-.34,3.51,3,11.95,4.41,15.16,8.42,18.72,22.25,48.6,22.25,48.6a16.31,16.31,0,0,1,1.46,8.08,43.42,43.42,0,0,1-2.92,12.1,34.13,34.13,0,0,1-1.74,4c-1.52,3.86.92,4.4,4.66,2.51,3.94-2,6.29-6.4,7.24-9.55,1.41-4.7,4.2-12.13,3.95-14.47l0,0-.09-.26h0l-.82-4.61s-3.78-14.17-6.95-30.47c-2.83-14.49-4.31-19.24-11.5-29.44l23.82-57.41Z" style="fill:#ffa8a7"></path><path d="M397.37,316.67a4.91,4.91,0,0,1,1,2.71c-.5,3.44-4.08,6-5.45,8.21s-2.67,7-3.5,9.81a9.09,9.09,0,0,1-.74,1.77,16.14,16.14,0,0,1-.75,1.5,9.48,9.48,0,0,1-3.26,2.44,16.37,16.37,0,0,1-7.93,1.77,9.4,9.4,0,0,1-5.82-1.77,2.44,2.44,0,0,1-1.08-2.24c.2-.93,1.19-1.42,2.08-1.77,1.86-.72,3.76-1.35,5.58-2.17a17.32,17.32,0,0,0,4.21-2.58,24.8,24.8,0,0,0,3.1-3.52c2-2.5,4-5,6.09-7.45C391.31,322.91,396.8,316.13,397.37,316.67Z" style="fill:#37474f"></path><path d="M394.46,311.15c1.22,1.68,4,4.23,2.94,7.32-.95,2.68-3.52,5.31-5.21,7.48a13.64,13.64,0,0,0-1.75,3.87c-.86,2.23-1.34,4.6-2.21,6.83-1.09,2.74-4.09,4.51-6.84,5.27a19.71,19.71,0,0,1-8.41.25,4.8,4.8,0,0,1-3-1.3,3.3,3.3,0,0,1-.52-3.09,7.22,7.22,0,0,1,1.75-2.73c1.17-1.26,2.54-2.33,3.74-3.56,2.21-2.27,2.91-5,3.69-8,.54-2.1,1.34-5.12,1-6.48a7.24,7.24,0,0,1-.41-2.07,1.3,1.3,0,0,1,.76-1,6.92,6.92,0,0,1,3.34-.45c1,0,2,.24,3,.29a5,5,0,0,0,4.9-5.21l-.31-.95C391.82,306.79,393.08,309.26,394.46,311.15Z" style="fill:#455a64"></path><path d="M451.21,255.63c-.75-3.94-2.47-4.51-2.47-4.51l-12.55.24v.28l-.22,12.7L449.11,262A7,7,0,0,0,451.21,255.63Z" style="fill:#ffa8a7"></path><path d="M436.54,250.81l-29.21.3s5.31-39.19,3.55-62.13l-26.08-3-20.28-6.66c-2.39,7.24-9.44,43.36-9.44,43.36-1.37,10.18-2.27,14.56-3,22.37s1.23,10.66,5.22,19.28,19.89,41.79,19.89,41.79,2,1.6,6.44-.32a11,11,0,0,0,5.72-5s-4.75-22.18-6.43-31.56-7.22-18.56-9.54-20.59l10.38-25c.66,10.16,1.33,28.45,3.49,38.89,1.43,6.93,5.54,10.94,13.12,9.73,10.56-1.68,38.46-7.94,38.46-7.94C444.46,263.56,443.06,253.09,436.54,250.81Z" style="fill:#37474f"></path><path d="M407.33,251.11s.4,5.29-1.86,9.24A14.67,14.67,0,0,0,409.1,255c1.2-3.27,10.57-2.49,17.57-4.05Z" style="fill:#263238"></path><path d="M383.73,223.76l-.74-14a38.27,38.27,0,0,1-10.53-8.85,40.55,40.55,0,0,0,8.35,9.55l.92,13-8.32,25.18Z" style="fill:#263238"></path><path d="M346.69,55.65a36.13,36.13,0,0,1,.28-5.4c.45-3.24,1.57-7.67,5.08-8.81a5.54,5.54,0,0,0,1.9-.69c.57-.46.79-1.28,1.4-1.69.95-.63,2.27,0,3.33-.35l.12,0a3.45,3.45,0,0,0,1.59-2.09q.94-2.27,1.87-4.53l.93-2.26c.19-.47.27-1.28.73-1.57a.93.93,0,0,1,.87,0A2.74,2.74,0,0,1,366,30.6a16.56,16.56,0,0,1-1.28,6.5,58.36,58.36,0,0,0-2,7.21c-.14.64-.62,2.94.5,2.77a4.39,4.39,0,0,0,2.22-1.44,5.89,5.89,0,0,1,2.15-1.28c.8-.27,2.65-.22,2.12,1.1a2.6,2.6,0,0,1-.49.73c-1.05,1.24-2,2.52-3.09,3.73-.53.6-1.08,1.19-1.65,1.76q-.45.45-.9.87c-.21.19-.78.53-.87.78a15.12,15.12,0,0,0-2.18,2.27c-1.12,1.41-1.21,3-1.42,5-.08.77-.29,3.74-.29,3.74-.51,6.89.38,28.39.64,30.24a7.64,7.64,0,0,0,.91,2.87c2.06,3.48,14.3,24.75,14.3,24.75s8.08,14.26-4.05,19.44c-4.28-6.29-21.72-31.29-23.59-34.8a21,21,0,0,1-2.72-9.75C344.08,84.88,346.71,57.71,346.69,55.65Z" style="fill:#ffa8a7"></path><path d="M359.47,40.11c1.23,1.18,2.06,2.63,1.94,3.78a34.73,34.73,0,0,1-1.22,5.22c-.3.72-.93,1.65-2,1.37a2.19,2.19,0,0,1-2.23.85,2.38,2.38,0,0,1-2.35.87,2.2,2.2,0,0,1-2,.66,2.05,2.05,0,0,0,2.25-.15,2.08,2.08,0,0,0,2.27-.86,2.12,2.12,0,0,0,2.21-.69,2.08,2.08,0,0,0,2.22-1.09,16.49,16.49,0,0,0,1.39-5C362.21,43.59,362.56,42,359.47,40.11Z" style="fill:#f28f8f"></path><path d="M354.41,119.41c3.86,5.24,11.33,16.05,13.26,22.08,1.62,3.39,5.92.52,7.78-6.59,2.59-9.91,10.36-14.9,6.94-15.41-4.21-.62-16.4-15-16.4-15-2.36-3-6.05-9-6.05-9l-1.22-22.2s-5.72,2.65-13.25-1.35c0,0-1.23,8.45-1.78,18.19s-.42,12.24,1.61,15.78A145.71,145.71,0,0,0,354.41,119.41Z" style="fill:#FDE4D2"></path><path d="M418.36,137.69l-6.1,29.75-.75,25.88c-13.83,6.47-35.55,4.24-49.45-6.94,0,0,2.1-45.55,5-55.64s8-12.16,15.14-11.93c7.55.23,17.25,1.3,17.25,1.3l13.33,2.61S418.53,134.1,418.36,137.69Z" style="fill:#455a64"></path><path d="M445.6,166.35s-1.69,13.12-3.37,19.43c-1.17,4.38-3.92,13.59-6.77,17.44-7.08,9.55-13.59,5.39-15.22,4.18-1.87-1.4-2-3.36,2.33-8.17a21.49,21.49,0,0,0,2.54-3.53c.37-.63,1.73-2.39.43-2.71a2.15,2.15,0,0,0-1.19.16l-2.73.91a3.67,3.67,0,0,1-1.84.28,1.28,1.28,0,0,1-1.12-1.28c.07-.55.58-.91,1-1.2q4.23-2.61,8.66-4.88c.6-.31,1.75-.58,2.09-1.17a4.51,4.51,0,0,0,.38-1.16c.12-.8.22-1.6.32-2.41.25-2.17.48-4.35.69-6.52.3-3,.37-9,.63-12l-17.87-20.16s-4.52-5.85-4.52-21.39a25.52,25.52,0,0,1,8.88,2.15c5.14,2.4,22.2,28,24.44,30.52S446.45,158.94,445.6,166.35Z" style="fill:#ffa8a7"></path><path d="M408.92,122c1.17.23,5.68,0,8.67,1.29s5.31,2.93,9.12,8.06,16,21.35,17.85,23.84,2.49,3.68,1.86,8.6-2.95,16.3-2.95,16.3a24.06,24.06,0,0,1-11.85-2l.2-14.19-19.07-20.92S406.69,135,408.92,122Z" style="fill:#FDE4D2"></path><path d="M397.2,88a12.93,12.93,0,1,1-12.31-13.52A12.94,12.94,0,0,1,397.2,88Z" style="fill:#263238"></path><path d="M406.18,97.59s-2.56,9.74-3.47,11.32a4.43,4.43,0,0,1-2.67,2l.47-6.91Z" style="fill:#263238"></path><path d="M404.22,83.38a4.87,4.87,0,0,1,3.95,1.6c1.64,1.84.41,7.31-2,12.61l-4,.27Z" style="fill:#263238"></path><path d="M401,97.81c.77.51,2-1,3-1.93s4.27-2.22,5.7,1.2-1.78,7.85-4.32,8.52c-4.38,1.15-4.9-1.65-4.9-1.65l-1.08,16h0c-5.69,6.63-20.72,6.62-14.17-.28l.39-6a27.07,27.07,0,0,1-5.84,0,7.75,7.75,0,0,1-6.17-6.59c-1-6.21-1-10.16.49-21,1.65-11.89,15.86-11.31,23.11-6.25S401,97.81,401,97.81Z" style="fill:#ffa8a7"></path><path d="M401,99.14c.4,0,2-2.41,3.06-3.26,1.42-1.18.19-12.5.19-12.5a5.45,5.45,0,0,0-.65-6.11,10.9,10.9,0,0,0-6.87-4c-4.16-.71-8.43-.48-12.29-2.5a12.09,12.09,0,0,0-2.33-1.1,2.82,2.82,0,0,0-2.47.3,2.68,2.68,0,0,0-1,2.14,7.75,7.75,0,0,0,.44,2.37,9.46,9.46,0,0,0-3.31-.09,3.2,3.2,0,0,0-2.49,2,4.78,4.78,0,0,0,.6,3.37c1.45,3.22,5.4,3.9,8.55,4.44a74.82,74.82,0,0,0,14,.39c1.47-.13,1.72,1.31,2.33,5.23C399.33,93.24,399.64,99.05,401,99.14Z" style="fill:#263238"></path><path d="M404.17,84.25l4.9-2.34a2.64,2.64,0,0,0-3.56-1.37A2.87,2.87,0,0,0,404.17,84.25Z" style="fill:#263238"></path><path d="M385.65,113.7s7.15-1.09,9.7-2.3a8.09,8.09,0,0,0,3.58-3.22,11.1,11.1,0,0,1-2.13,3.9c-1.93,2.24-11.28,3.54-11.28,3.54Z" style="fill:#f28f8f"></path><path d="M388.22,95.43A1.45,1.45,0,0,0,389.57,97a1.48,1.48,0,1,0-1.35-1.54Z" style="fill:#263238"></path><path d="M390,90.13l3,1.83a1.83,1.83,0,0,0-.6-2.46A1.69,1.69,0,0,0,390,90.13Z" style="fill:#263238"></path><path d="M387.86,104.34l-4.49,1.45a2.32,2.32,0,0,0,2.93,1.6A2.49,2.49,0,0,0,387.86,104.34Z" style="fill:#f28f8f"></path><path d="M375.74,90.65l2.87-2a1.68,1.68,0,0,0-2.39-.48A1.84,1.84,0,0,0,375.74,90.65Z" style="fill:#263238"></path><path d="M376.42,94.47A1.45,1.45,0,0,0,377.77,96a1.48,1.48,0,1,0-1.35-1.54Z" style="fill:#263238"></path><polygon points="383.72 93.46 382.85 101.98 378.46 100.25 383.72 93.46" style="fill:#f28f8f"></polygon></g></g></svg>